# xmcd CD database file
#
# Track frame offsets:
#	150
#	24003
#	44673
#	61639
#	84697
#	106514
#	140708
#	158487
#
# Disc length: 2449 seconds
#
# Revision: 1
# Processed by: cddbd v1.5.1PL0 Copyright (c) Steve Scherf et al.
# Submitted via: CDex 1.50
#
DISCID=56098f08
DTITLE=Stephane Grappelli and David Grisman - Live
DYEAR=1900
DGENRE=Jazz
TTITLE0=Shine
TTITLE1=Pent-Up house
TTITLE2=Misty
TTITLE3=Sweet Georgie Brown
TTITLE4=Tiger Rag
TTITLE5=Satin Doll
TTITLE6=Swing of 42
TTITLE7=Medley: Tzigani, Fisztorza, Fulginiti
EXTD=
EXTT0=
EXTT1=
EXTT2=
EXTT3=
EXTT4=
EXTT5=
EXTT6=
EXTT7=
PLAYORDER=
